# This file uses centimeters as units for non-parametric coordinates.

mtllib Box.mtl
g default
v -10.055000 -6.451608 2.454108
v -10.032772 -6.505272 2.454108
v -9.979108 -6.527500 2.454108
v -9.979108 -6.505272 2.507771
v -9.979108 -6.451608 2.530000
v -10.032772 -6.451608 2.507771
v 9.979108 -6.527500 2.454108
v 10.032772 -6.505272 2.454108
v 10.055000 -6.451608 2.454108
v 10.032772 -6.451608 2.507771
v 9.979108 -6.451608 2.530000
v 9.979108 -6.505272 2.507771
v -9.979108 6.527500 2.454108
v -10.032772 6.505272 2.454108
v -10.055000 6.451608 2.454108
v -10.032772 6.451608 2.507771
v -9.979108 6.451608 2.530000
v -9.979108 6.505272 2.507771
v 10.055000 6.451608 2.454108
v 10.032772 6.505272 2.454108
v 9.979108 6.527500 2.454108
v 9.979108 6.505272 2.507771
v 9.979108 6.451608 2.530000
v 10.032772 6.451608 2.507771
v -9.979108 6.451608 -2.530000
v -10.032772 6.451608 -2.507771
v -10.055000 6.451608 -2.454108
v -10.032772 6.505272 -2.454108
v -9.979108 6.527500 -2.454108
v -9.979108 6.505272 -2.507771
v 10.055000 6.451608 -2.454108
v 10.032772 6.451608 -2.507771
v 9.979108 6.451608 -2.530000
v 9.979108 6.505272 -2.507771
v 9.979108 6.527500 -2.454108
v 10.032772 6.505272 -2.454108
v -9.979108 -6.527500 -2.454108
v -10.032772 -6.505272 -2.454108
v -10.055000 -6.451608 -2.454108
v -10.032772 -6.451608 -2.507771
v -9.979108 -6.451608 -2.530000
v -9.979108 -6.505272 -2.507771
v 10.055000 -6.451608 -2.454108
v 10.032772 -6.505272 -2.454108
v 9.979108 -6.527500 -2.454108
v 9.979108 -6.505272 -2.507771
v 9.979108 -6.451608 -2.530000
v 10.032772 -6.451608 -2.507771
v -10.022293 -6.494793 2.497293
v 10.022293 -6.494793 2.497293
v -10.022293 6.494793 2.497293
v 10.022293 6.494793 2.497293
v -10.022293 6.494793 -2.497293
v 10.022293 6.494793 -2.497293
v -10.022293 -6.494793 -2.497293
v 10.022293 -6.494793 -2.497293
vt 0.007958 0.552870
vt 0.007958 0.018253
vt 0.139433 0.018253
vt 0.139433 0.552870
vt 0.006520 0.552870
vt 0.006520 0.018253
vt 0.139433 0.016815
vt 0.007958 0.016815
vt 0.140871 0.552870
vt 0.140871 0.018253
vt 0.139433 0.554308
vt 0.007958 0.554308
vt 0.006801 0.554027
vt 0.006801 0.017096
vt 0.140590 0.017096
vt 0.140590 0.554027
vt 0.645502 0.018253
vt 0.991138 0.018253
vt 0.991138 0.552870
vt 0.645502 0.552870
vt 0.645502 0.016815
vt 0.991138 0.016815
vt 0.992576 0.552870
vt 0.992576 0.018253
vt 0.645502 0.554308
vt 0.991138 0.554308
vt 0.644065 0.552870
vt 0.644065 0.018253
vt 0.644345 0.017096
vt 0.992295 0.017096
vt 0.992295 0.554027
vt 0.644345 0.554027
vt 0.964020 0.954618
vt 0.832544 0.954618
vt 0.832544 0.608982
vt 0.964020 0.608982
vt 0.964020 0.956056
vt 0.832544 0.956056
vt 0.831107 0.954618
vt 0.831107 0.608982
vt 0.964020 0.607545
vt 0.832544 0.607545
vt 0.965457 0.608982
vt 0.965457 0.954618
vt 0.965177 0.955775
vt 0.831388 0.955775
vt 0.831388 0.607825
vt 0.965177 0.607825
vt 0.789568 0.608982
vt 0.789568 0.954618
vt 0.658093 0.954618
vt 0.658093 0.608982
vt 0.791006 0.954618
vt 0.791006 0.608982
vt 0.658093 0.956056
vt 0.789568 0.956056
vt 0.656655 0.608982
vt 0.656655 0.954618
vt 0.658093 0.607545
vt 0.789568 0.607545
vt 0.790725 0.955775
vt 0.790725 0.607825
vt 0.656936 0.955775
vt 0.656936 0.607825
vt 0.148271 0.018253
vt 0.279746 0.018253
vt 0.279746 0.552870
vt 0.148271 0.552870
vt 0.148271 0.016816
vt 0.279746 0.016816
vt 0.281184 0.552870
vt 0.281184 0.018253
vt 0.148271 0.554308
vt 0.279746 0.554308
vt 0.146833 0.552870
vt 0.146833 0.018253
vt 0.147114 0.017096
vt 0.280903 0.017096
vt 0.280903 0.554027
vt 0.147114 0.554027
vt 0.289934 0.018253
vt 0.635570 0.018253
vt 0.635570 0.552870
vt 0.289934 0.552870
vt 0.289934 0.016815
vt 0.635570 0.016815
vt 0.637008 0.552870
vt 0.637008 0.018253
vt 0.289934 0.554308
vt 0.635570 0.554308
vt 0.288497 0.552870
vt 0.288497 0.018253
vt 0.288777 0.017096
vt 0.636727 0.017096
vt 0.636727 0.554027
vt 0.288777 0.554027
vn -0.001107 -0.999989 -0.004476
vn 0.001107 -0.999989 -0.004476
vn 0.001107 -0.999989 0.004476
vn -0.001107 -0.999989 0.004476
vn 0.001109 -0.001714 0.999998
vn 0.001109 0.001714 0.999998
vn -0.001109 0.001714 0.999998
vn -0.001109 -0.001714 0.999998
vn -0.999989 0.001709 0.004474
vn -0.999989 0.001709 -0.004474
vn -0.999989 -0.001709 -0.004474
vn -0.999989 -0.001709 0.004474
vn 0.999989 -0.001709 -0.004474
vn 0.999989 0.001709 -0.004474
vn 0.999989 0.001709 0.004474
vn 0.999989 -0.001709 0.004474
vn 0.001107 0.999989 0.004476
vn 0.001107 0.999989 -0.004476
vn -0.001107 0.999989 -0.004476
vn -0.001107 0.999989 0.004476
vn 0.001109 0.001714 -0.999998
vn 0.001109 -0.001714 -0.999998
vn -0.001109 -0.001714 -0.999998
vn -0.001109 0.001714 -0.999998
vn -0.382452 -0.923971 0.002812
vn -0.382452 -0.923971 -0.002812
vn -0.923971 -0.382452 0.002812
vn -0.923971 -0.382452 -0.002812
vn -0.000696 -0.382627 0.923903
vn 0.000696 -0.382627 0.923903
vn -0.000696 -0.923904 0.382625
vn 0.000696 -0.923904 0.382625
vn -0.923915 -0.001075 0.382596
vn -0.923915 0.001075 0.382596
vn -0.382598 -0.001075 0.923914
vn -0.382598 0.001075 0.923914
vn 0.923971 -0.382452 0.002812
vn 0.923971 -0.382452 -0.002812
vn 0.382452 -0.923971 0.002812
vn 0.382452 -0.923971 -0.002812
vn 0.382598 -0.001075 0.923914
vn 0.382598 0.001075 0.923914
vn 0.923915 -0.001075 0.382596
vn 0.923915 0.001075 0.382596
vn -0.923971 0.382452 0.002812
vn -0.923971 0.382452 -0.002812
vn -0.382452 0.923971 0.002812
vn -0.382452 0.923971 -0.002812
vn -0.000696 0.923904 0.382625
vn 0.000696 0.923904 0.382625
vn -0.000696 0.382627 0.923903
vn 0.000696 0.382627 0.923903
vn 0.382452 0.923971 0.002812
vn 0.382452 0.923971 -0.002812
vn 0.923971 0.382452 0.002812
vn 0.923971 0.382452 -0.002812
vn -0.923915 0.001075 -0.382596
vn -0.923915 -0.001075 -0.382596
vn -0.382598 0.001075 -0.923914
vn -0.382598 -0.001075 -0.923914
vn -0.000696 0.382627 -0.923903
vn 0.000696 0.382627 -0.923903
vn -0.000696 0.923904 -0.382625
vn 0.000696 0.923904 -0.382625
vn 0.382598 0.001075 -0.923914
vn 0.382598 -0.001075 -0.923914
vn 0.923915 0.001075 -0.382596
vn 0.923915 -0.001075 -0.382596
vn -0.000696 -0.923904 -0.382625
vn 0.000696 -0.923904 -0.382625
vn -0.000696 -0.382627 -0.923903
vn 0.000696 -0.382627 -0.923903
vn -0.881547 -0.333825 0.333820
vn -0.333821 -0.881545 0.333830
vn -0.333823 -0.333821 0.881547
vn 0.333821 -0.881547 0.333825
vn 0.881545 -0.333831 0.333819
vn 0.333824 -0.333821 0.881547
vn -0.333821 0.881547 0.333825
vn -0.881545 0.333831 0.333819
vn -0.333824 0.333821 0.881547
vn 0.881547 0.333825 0.333820
vn 0.333821 0.881545 0.333830
vn 0.333823 0.333821 0.881547
vn -0.333823 0.333821 -0.881547
vn -0.881547 0.333825 -0.333820
vn -0.333821 0.881545 -0.333830
vn 0.881545 0.333831 -0.333819
vn 0.333824 0.333821 -0.881547
vn 0.333821 0.881547 -0.333825
vn -0.333821 -0.881547 -0.333825
vn -0.881545 -0.333831 -0.333819
vn -0.333824 -0.333821 -0.881547
vn 0.881547 -0.333825 -0.333820
vn 0.333821 -0.881545 -0.333830
vn 0.333823 -0.333821 -0.881547
s 1
g pCube1
usemtl lambert2SG
f 37/1/1 45/2/2 7/3/3 3/4/4
s 2
f 11/17/5 23/18/6 17/19/7 5/20/8
s 3
f 15/33/9 27/34/10 39/35/11 1/36/12
s 4
f 43/49/13 31/50/14 19/51/15 9/52/16
s 5
f 21/65/17 35/66/18 29/67/19 13/68/20
s 6
f 33/81/21 47/82/22 41/83/23 25/84/24
s 1
f 3/4/4 2/11/25 38/12/26 37/1/1
s 3
f 2/41/27 1/36/12 39/35/11 38/42/28
s 2
f 5/20/8 4/27/29 12/28/30 11/17/5
s 1
f 4/9/31 3/4/4 7/3/3 12/10/32
s 3
f 1/36/12 6/43/33 16/44/34 15/33/9
s 2
f 6/25/35 5/20/8 17/19/7 16/26/36
s 4
f 9/52/16 8/59/37 44/60/38 43/49/13
s 1
f 8/7/39 7/3/3 45/2/2 44/8/40
s 2
f 11/17/5 10/21/41 24/22/42 23/18/6
s 4
f 10/57/43 9/52/16 19/51/15 24/58/44
s 3
f 15/33/9 14/37/45 28/38/46 27/34/10
s 5
f 14/73/47 13/68/20 29/67/19 28/74/48
f 13/68/20 18/75/49 22/76/50 21/65/17
s 2
f 18/23/51 17/19/7 23/18/6 22/24/52
s 5
f 21/65/17 20/69/53 36/70/54 35/66/18
s 4
f 20/55/55 19/51/15 31/50/14 36/56/56
s 3
f 27/34/10 26/39/57 40/40/58 39/35/11
s 6
f 26/89/59 25/84/24 41/83/23 40/90/60
f 25/84/24 30/91/61 34/92/62 33/81/21
s 5
f 30/71/63 29/67/19 35/66/18 34/72/64
s 6
f 33/81/21 32/85/65 48/86/66 47/82/22
s 4
f 32/53/67 31/50/14 43/49/13 48/54/68
s 1
f 37/1/1 42/5/69 46/6/70 45/2/2
s 6
f 42/87/71 41/83/23 47/82/22 46/88/72
s 3
f 6/43/33 1/36/12 2/41/27 49/48/73
s 1
f 2/11/25 3/4/4 4/9/31 49/16/74
s 2
f 4/27/29 5/20/8 6/25/35 49/32/75
s 1
f 12/10/32 7/3/3 8/7/39 50/15/76
s 4
f 8/59/37 9/52/16 10/57/43 50/64/77
s 2
f 10/21/41 11/17/5 12/28/30 50/29/78
s 5
f 18/75/49 13/68/20 14/73/47 51/80/79
s 3
f 14/37/45 15/33/9 16/44/34 51/45/80
s 2
f 16/26/36 17/19/7 18/23/51 51/31/81
s 4
f 24/58/44 19/51/15 20/55/55 52/63/82
s 5
f 20/69/53 21/65/17 22/76/50 52/77/83
s 2
f 22/24/52 23/18/6 24/22/42 52/30/84
s 6
f 30/91/61 25/84/24 26/89/59 53/96/85
s 3
f 26/39/57 27/34/10 28/38/46 53/46/86
s 5
f 28/74/48 29/67/19 30/71/63 53/79/87
s 4
f 36/56/56 31/50/14 32/53/67 54/61/88
s 6
f 32/85/65 33/81/21 34/92/62 54/93/89
s 5
f 34/72/64 35/66/18 36/70/54 54/78/90
s 1
f 42/5/69 37/1/1 38/12/26 55/13/91
s 3
f 38/42/28 39/35/11 40/40/58 55/47/92
s 6
f 40/90/60 41/83/23 42/87/71 55/95/93
s 4
f 48/54/68 43/49/13 44/60/38 56/62/94
s 1
f 44/8/40 45/2/2 46/6/70 56/14/95
s 6
f 46/88/72 47/82/22 48/86/66 56/94/96
